<mxfile host="app.diagrams.net" agent="Mozilla/5.0 (Windows NT 10.0; Win64; x64) AppleWebKit/537.36 (KHTML, like Gecko) Chrome/140.0.0.0 Safari/537.36 Edg/140.0.0.0" version="28.2.3">
  <diagram name="Page-1" id="82l76KHtAT0PNsM_DBbS">
    <mxGraphModel dx="1034" dy="570" grid="1" gridSize="10" guides="1" tooltips="1" connect="1" arrows="1" fold="1" page="1" pageScale="1" pageWidth="850" pageHeight="1100" math="0" shadow="0">
      <root>
        <mxCell id="0" />
        <mxCell id="1" parent="0" />
        <mxCell id="KQjHrsr2A5YUwW21i8sU-9" style="edgeStyle=orthogonalEdgeStyle;rounded=0;orthogonalLoop=1;jettySize=auto;html=1;entryX=0.5;entryY=0;entryDx=0;entryDy=0;" edge="1" parent="1" source="KQjHrsr2A5YUwW21i8sU-1" target="KQjHrsr2A5YUwW21i8sU-3">
          <mxGeometry relative="1" as="geometry" />
        </mxCell>
        <mxCell id="KQjHrsr2A5YUwW21i8sU-1" value="devlop" style="ellipse;whiteSpace=wrap;html=1;" vertex="1" parent="1">
          <mxGeometry x="305" y="230" width="120" height="80" as="geometry" />
        </mxCell>
        <mxCell id="KQjHrsr2A5YUwW21i8sU-8" style="edgeStyle=orthogonalEdgeStyle;rounded=0;orthogonalLoop=1;jettySize=auto;html=1;exitX=0.5;exitY=1;exitDx=0;exitDy=0;entryX=0.5;entryY=0;entryDx=0;entryDy=0;" edge="1" parent="1" source="KQjHrsr2A5YUwW21i8sU-2" target="KQjHrsr2A5YUwW21i8sU-1">
          <mxGeometry relative="1" as="geometry" />
        </mxCell>
        <mxCell id="KQjHrsr2A5YUwW21i8sU-2" value="plan" style="ellipse;whiteSpace=wrap;html=1;" vertex="1" parent="1">
          <mxGeometry x="305" y="80" width="120" height="80" as="geometry" />
        </mxCell>
        <mxCell id="KQjHrsr2A5YUwW21i8sU-10" style="edgeStyle=orthogonalEdgeStyle;rounded=0;orthogonalLoop=1;jettySize=auto;html=1;" edge="1" parent="1" source="KQjHrsr2A5YUwW21i8sU-3">
          <mxGeometry relative="1" as="geometry">
            <mxPoint x="365" y="500" as="targetPoint" />
          </mxGeometry>
        </mxCell>
        <mxCell id="KQjHrsr2A5YUwW21i8sU-3" value="built" style="ellipse;whiteSpace=wrap;html=1;" vertex="1" parent="1">
          <mxGeometry x="305" y="370" width="120" height="80" as="geometry" />
        </mxCell>
        <mxCell id="KQjHrsr2A5YUwW21i8sU-11" style="edgeStyle=orthogonalEdgeStyle;rounded=0;orthogonalLoop=1;jettySize=auto;html=1;exitX=0.5;exitY=1;exitDx=0;exitDy=0;entryX=0.5;entryY=0;entryDx=0;entryDy=0;" edge="1" parent="1" source="KQjHrsr2A5YUwW21i8sU-4" target="KQjHrsr2A5YUwW21i8sU-5">
          <mxGeometry relative="1" as="geometry" />
        </mxCell>
        <mxCell id="KQjHrsr2A5YUwW21i8sU-4" value="" style="ellipse;whiteSpace=wrap;html=1;" vertex="1" parent="1">
          <mxGeometry x="300" y="510" width="120" height="80" as="geometry" />
        </mxCell>
        <mxCell id="KQjHrsr2A5YUwW21i8sU-12" style="edgeStyle=orthogonalEdgeStyle;rounded=0;orthogonalLoop=1;jettySize=auto;html=1;exitX=0.5;exitY=1;exitDx=0;exitDy=0;entryX=0.5;entryY=0;entryDx=0;entryDy=0;" edge="1" parent="1" source="KQjHrsr2A5YUwW21i8sU-5" target="KQjHrsr2A5YUwW21i8sU-6">
          <mxGeometry relative="1" as="geometry" />
        </mxCell>
        <mxCell id="KQjHrsr2A5YUwW21i8sU-5" value="" style="ellipse;whiteSpace=wrap;html=1;" vertex="1" parent="1">
          <mxGeometry x="300" y="660" width="120" height="80" as="geometry" />
        </mxCell>
        <mxCell id="KQjHrsr2A5YUwW21i8sU-13" style="edgeStyle=orthogonalEdgeStyle;rounded=0;orthogonalLoop=1;jettySize=auto;html=1;exitX=0.5;exitY=1;exitDx=0;exitDy=0;" edge="1" parent="1" source="KQjHrsr2A5YUwW21i8sU-6">
          <mxGeometry relative="1" as="geometry">
            <mxPoint x="360" y="950" as="targetPoint" />
          </mxGeometry>
        </mxCell>
        <mxCell id="KQjHrsr2A5YUwW21i8sU-6" value="" style="ellipse;whiteSpace=wrap;html=1;" vertex="1" parent="1">
          <mxGeometry x="300" y="800" width="120" height="80" as="geometry" />
        </mxCell>
        <mxCell id="KQjHrsr2A5YUwW21i8sU-7" value="" style="ellipse;whiteSpace=wrap;html=1;" vertex="1" parent="1">
          <mxGeometry x="300" y="960" width="120" height="80" as="geometry" />
        </mxCell>
      </root>
    </mxGraphModel>
  </diagram>
</mxfile>
